<svg xmlns="http://www.w3.org/2000/svg" width="1200" height="675" viewBox="0 0 1200 675" fill="none"><rect width="1200" height="675" fill="#F5F7F8"/><rect x="100" y="75" width="1000" height="525" rx="12" fill="white" stroke="#D1D8DC" stroke-width="2"/><rect x="150" y="125" width="900" height="50" rx="8" fill="#4A90E2" opacity="0.1"/><rect x="180" y="140" width="160" height="20" rx="4" fill="#4A90E2"/><rect x="710" y="140" width="100" height="20" rx="4" fill="#4A90E2" opacity="0.5"/><rect x="830" y="140" width="100" height="20" rx="4" fill="#4A90E2" opacity="0.5"/><rect x="950" y="140" width="70" height="20" rx="4" fill="#4A90E2" opacity="0.5"/><rect x="150" y="225" width="280" height="325" rx="8" fill="#F5F7F8"/><rect x="180" y="255" width="220" height="30" rx="4" fill="#2ECC71" opacity="0.2"/><rect x="180" y="305" width="220" height="15" rx="2" fill="#7F8C8D" opacity="0.3"/><rect x="180" y="330" width="220" height="15" rx="2" fill="#7F8C8D" opacity="0.3"/><rect x="180" y="355" width="220" height="15" rx="2" fill="#7F8C8D" opacity="0.3"/><rect x="180" y="395" width="220" height="40" rx="4" fill="#2ECC71" opacity="0.7"/><rect x="180" y="455" width="100" height="15" rx="2" fill="#7F8C8D" opacity="0.3"/><rect x="180" y="480" width="150" height="15" rx="2" fill="#7F8C8D" opacity="0.3"/><rect x="180" y="505" width="120" height="15" rx="2" fill="#7F8C8D" opacity="0.3"/><rect x="450" y="225" width="600" height="150" rx="8" fill="#F5F7F8"/><rect x="480" y="255" width="280" height="30" rx="4" fill="#4A90E2" opacity="0.2"/><rect x="480" y="305" width="540" height="15" rx="2" fill="#7F8C8D" opacity="0.3"/><rect x="480" y="330" width="540" height="15" rx="2" fill="#7F8C8D" opacity="0.3"/><rect x="480" y="355" width="300" height="15" rx="2" fill="#7F8C8D" opacity="0.3"/><rect x="450" y="400" width="290" height="150" rx="8" fill="#F5F7F8"/><rect x="480" y="430" width="180" height="30" rx="4" fill="#F1C40F" opacity="0.2"/><rect x="480" y="480" width="230" height="15" rx="2" fill="#7F8C8D" opacity="0.3"/><rect x="480" y="505" width="230" height="15" rx="2" fill="#7F8C8D" opacity="0.3"/><rect x="760" y="400" width="290" height="150" rx="8" fill="#F5F7F8"/><rect x="790" y="430" width="180" height="30" rx="4" fill="#E74C3C" opacity="0.2"/><rect x="790" y="480" width="230" height="15" rx="2" fill="#7F8C8D" opacity="0.3"/><rect x="790" y="505" width="230" height="15" rx="2" fill="#7F8C8D" opacity="0.3"/></svg>
